<svg xmlns="http://www.w3.org/2000/svg" viewBox="0 0 89.83 89.83"><defs><style>.cls-1{fill:#c19425;}</style></defs><title>icon-5</title><g id="Layer_2" data-name="Layer 2"><g id="Layer_1-2" data-name="Layer 1"><path class="cls-1" d="M45.21,89.24A44.62,44.62,0,1,1,89.83,44.62,44.67,44.67,0,0,1,45.21,89.24ZM45.21.3A44.32,44.32,0,1,0,89.54,44.62,44.37,44.37,0,0,0,45.21.3Z"/><path class="cls-1" d="M45.21,89.83A45.26,45.26,0,0,1,0,44.62a.74.74,0,1,1,1.48,0A43.78,43.78,0,0,0,45.21,88.35a.74.74,0,1,1,0,1.48Z"/><path class="cls-1" d="M45.21,87.71A43.1,43.1,0,0,1,28.44,4.92,43.1,43.1,0,0,1,62,84.32,42.82,42.82,0,0,1,45.21,87.71Zm0-86.1A43,43,0,0,0,28.47,84.26,43,43,0,0,0,62,5,42.75,42.75,0,0,0,45.21,1.6Z"/><polygon class="cls-1" points="29.15 49.89 31.39 49.89 31.39 45.92 34.93 45.92 34.93 44.1 31.39 44.1 31.39 41.85 35.18 41.85 35.18 40.02 29.15 40.02 29.15 49.89"/><polygon class="cls-1" points="48.47 45.72 52.1 45.72 52.1 43.9 48.47 43.9 48.47 41.85 52.32 41.85 52.32 40.02 46.23 40.02 46.23 49.89 52.53 49.89 52.53 48.06 48.47 48.06 48.47 45.72"/><path class="cls-1" d="M42.54,45.26v0a2.62,2.62,0,0,0,1.74-2.43,2.5,2.5,0,0,0-.91-2.07,5,5,0,0,0-3.19-.78,19.6,19.6,0,0,0-3,.21v9.74h2.21V46h.67c.91,0,1.33.35,1.6,1.58a12.34,12.34,0,0,0,.69,2.3h2.29c-.19-.38-.5-1.67-.81-2.78A2.49,2.49,0,0,0,42.54,45.26ZM40.3,44.4h-.88V41.67a5.55,5.55,0,0,1,1-.07c1,0,1.64.47,1.64,1.38S41.41,44.4,40.3,44.4Z"/><path class="cls-1" d="M44.92,10.92a34,34,0,1,0,34,34A34,34,0,0,0,44.92,10.92Zm24.5,37.64-4,3.81.44,5.48a1.57,1.57,0,0,1-1.13,1.64L59.48,61l-2.15,5.06a1.57,1.57,0,0,1-1.76.93l-5.39-1.1-4.25,3.48a1.58,1.58,0,0,1-2,0l-4.26-3.48L34.27,67a1.57,1.57,0,0,1-1.76-.93L30.36,61l-5.28-1.52a1.58,1.58,0,0,1-1.13-1.64l.45-5.48-4-3.81a1.57,1.57,0,0,1-.24-2l2.94-4.65-1.74-5.21a1.58,1.58,0,0,1,.71-1.87l4.77-2.75.88-5.43a1.57,1.57,0,0,1,1.49-1.32l5.49-.22,3.3-4.4a1.58,1.58,0,0,1,1.94-.48l5,2.36,5-2.36a1.56,1.56,0,0,1,1.93.48l3.3,4.4,5.5.22a1.58,1.58,0,0,1,1.49,1.32L63,32.1l4.77,2.75a1.58,1.58,0,0,1,.7,1.87l-1.74,5.21,2.94,4.65A1.57,1.57,0,0,1,69.42,48.55Z"/><polygon class="cls-1" points="56.63 45.72 60.26 45.72 60.26 43.9 56.63 43.9 56.63 41.85 60.48 41.85 60.48 40.02 54.39 40.02 54.39 49.89 60.69 49.89 60.69 48.06 56.63 48.06 56.63 45.72"/></g></g></svg>