<svg xmlns="http://www.w3.org/2000/svg" viewBox="0 0 89.83 89.83"><defs><style>.cls-1{fill:#c19425;}</style></defs><title>icon-1</title><g id="Layer_2" data-name="Layer 2"><g id="Layer_1-2" data-name="Layer 1"><path class="cls-1" d="M45.21,89.24A44.62,44.62,0,1,1,89.83,44.62,44.67,44.67,0,0,1,45.21,89.24ZM45.21.3A44.32,44.32,0,1,0,89.54,44.62,44.37,44.37,0,0,0,45.21.3Z"/><path class="cls-1" d="M45.21,89.83A45.26,45.26,0,0,1,0,44.62a.74.74,0,1,1,1.48,0A43.78,43.78,0,0,0,45.21,88.35a.74.74,0,1,1,0,1.48Z"/><path class="cls-1" d="M45.21,87.71A43.1,43.1,0,0,1,28.44,4.92,43.1,43.1,0,0,1,62,84.32,42.82,42.82,0,0,1,45.21,87.71Zm0-86.1A43,43,0,0,0,28.47,84.26,43,43,0,0,0,62,5,42.75,42.75,0,0,0,45.21,1.6Z"/><path class="cls-1" d="M44.92,10.92a34,34,0,1,0,34,34A34,34,0,0,0,44.92,10.92Zm15,26.1-1.49.54a1.46,1.46,0,0,1-.64.09c0,.28-.08.55-.12.83a1.43,1.43,0,0,1,.6.26l1.32,1c.77.56.62,1.08-.32,1.16L57.62,41a1.42,1.42,0,0,1-.68-.1c-.1.26-.21.52-.33.77a1.41,1.41,0,0,1,.55.42l1,1.27c.6.74.32,1.2-.61,1L56,44.14a1.41,1.41,0,0,1-.66-.3c-.17.23-.33.46-.51.67a1.38,1.38,0,0,1,.44.57l.66,1.49c.39.87,0,1.24-.86.84l-1.44-.67a1.38,1.38,0,0,1-.58-.48l-.26.2h0L57.37,67c.25.92-.23,1.29-1.07.85l-3-1.6a2.62,2.62,0,0,0-2.79.34L48.17,68.7c-.7.64-1.31.38-1.34-.56l-.72-18.3v0l-.59,1.52c-.34.88-.88.88-1.21,0l-.35-1-.7,17.72c0,.95-.64,1.2-1.34.56l-2.36-2.13a2.61,2.61,0,0,0-2.79-.34l-3,1.6c-.74.4-1.2.14-1.12-.55h0a1.9,1.9,0,0,1,.05-.29v0l4.11-20.67a1.34,1.34,0,0,1-.6.49l-1.49.66c-.87.38-1.24,0-.84-.86l.67-1.44a1.36,1.36,0,0,1,.49-.59c-.18-.22-.35-.45-.52-.68a1.38,1.38,0,0,1-.69.31l-1.61.25c-.94.15-1.2-.33-.59-1l1-1.22a1.38,1.38,0,0,1,.61-.43c-.12-.26-.23-.52-.34-.78a1.39,1.39,0,0,1-.72.1l-1.62-.17c-.94-.1-1.07-.62-.3-1.17l1.3-.91a1.4,1.4,0,0,1,.66-.26c0-.28-.1-.55-.13-.84a1.4,1.4,0,0,1-.68-.09L30,37c-.88-.34-.88-.88,0-1.21l1.49-.54a1.43,1.43,0,0,1,.66-.09c0-.28.06-.56.1-.84a1.43,1.43,0,0,1-.6-.27l-1.32-1c-.77-.56-.62-1.08.32-1.16l1.58-.14a1.47,1.47,0,0,1,.63.07c.09-.26.19-.53.3-.78a1.46,1.46,0,0,1-.47-.39l-1-1.27c-.59-.74-.32-1.2.61-1l1.57.28a1.47,1.47,0,0,1,.55.21q.25-.35.51-.68a1.48,1.48,0,0,1-.33-.47l-.66-1.49c-.38-.87,0-1.24.86-.84l1.44.67a1.51,1.51,0,0,1,.45.32c.22-.18.45-.36.69-.53a1.46,1.46,0,0,1-.18-.52l-.25-1.61c-.15-.94.32-1.2,1.05-.59l1.22,1a1.53,1.53,0,0,1,.34.41c.26-.12.53-.24.8-.34a1.48,1.48,0,0,1,0-.52l.17-1.62c.1-.94.62-1.08,1.17-.3l.91,1.3a1.54,1.54,0,0,1,.22.47c.29,0,.58-.1.87-.13a1.53,1.53,0,0,1,.1-.49l.59-1.52c.34-.88.88-.88,1.21,0L46.07,23a1.47,1.47,0,0,1,.09.49c.29,0,.58.08.87.12a1.56,1.56,0,0,1,.22-.45l1-1.31c.56-.77,1.08-.62,1.16.32l.14,1.58a1.5,1.5,0,0,1,0,.51c.28.1.55.21.81.34a1.52,1.52,0,0,1,.33-.38l1.27-1c.74-.6,1.2-.32,1,.61l-.28,1.56a1.54,1.54,0,0,1-.18.49c.24.17.47.34.7.53a1.5,1.5,0,0,1,.42-.28l1.49-.66c.87-.39,1.25,0,.84.86l-.67,1.44a1.48,1.48,0,0,1-.31.44c.18.22.35.46.52.69a1.49,1.49,0,0,1,.51-.18l1.61-.25c.94-.15,1.2.32.59,1.05l-1,1.22a1.48,1.48,0,0,1-.44.36c.11.26.21.53.31.79a1.46,1.46,0,0,1,.58,0l1.62.17c.94.1,1.08.62.3,1.17l-1.3.91a1.49,1.49,0,0,1-.56.25c0,.28.08.55.11.83a1.46,1.46,0,0,1,.6.1l1.52.59C60.77,36.16,60.76,36.7,59.87,37Z"/><path class="cls-1" d="M46.65,34.64c-.42-.74-.83-1.49-1.24-2.24a2.7,2.7,0,0,0-.22-.34c-.44.78-.87,1.58-1.3,2.37a1.47,1.47,0,0,1-.25.37c-1,.23-2,.38-3,.62.29.35.64.65.93,1s.83.85,1.2,1.31c-.12,1-.28,2.06-.37,3.09.76-.32,1.49-.69,2.24-1a2.28,2.28,0,0,1,.63-.25,5.51,5.51,0,0,1,.71.32c.71.32,1.41.67,2.12,1-.09-1-.29-2.08-.37-3.12.21-.28.47-.53.71-.79.49-.49.94-1,1.42-1.51-1-.24-2-.39-3-.6C46.72,34.8,46.69,34.7,46.65,34.64Z"/><path class="cls-1" d="M45.21,26.32A10.13,10.13,0,1,0,55.34,36.45,10.13,10.13,0,0,0,45.21,26.32Zm0,18.34a8.21,8.21,0,1,1,8.21-8.21A8.21,8.21,0,0,1,45.21,44.65Z"/></g></g></svg>