<svg xmlns="http://www.w3.org/2000/svg" viewBox="0 0 89.83 89.83"><defs><style>.cls-1{fill:#c19425;}</style></defs><title>icon-2</title><g id="Layer_2" data-name="Layer 2"><g id="Layer_1-2" data-name="Layer 1"><path class="cls-1" d="M45.21,89.24A44.62,44.62,0,1,1,89.83,44.62,44.67,44.67,0,0,1,45.21,89.24ZM45.21.3A44.32,44.32,0,1,0,89.54,44.62,44.37,44.37,0,0,0,45.21.3Z"/><path class="cls-1" d="M45.21,89.83A45.26,45.26,0,0,1,0,44.62a.74.74,0,1,1,1.48,0A43.78,43.78,0,0,0,45.21,88.35a.74.74,0,1,1,0,1.48Z"/><path class="cls-1" d="M45.21,87.71A43.1,43.1,0,0,1,28.44,4.92,43.1,43.1,0,0,1,62,84.32,42.82,42.82,0,0,1,45.21,87.71Zm0-86.1A43,43,0,0,0,28.47,84.26,43,43,0,0,0,62,5,42.75,42.75,0,0,0,45.21,1.6Z"/><path class="cls-1" d="M44.92,10.92a34,34,0,1,0,34,34A34,34,0,0,0,44.92,10.92ZM34.44,29.2h5.24a5.24,5.24,0,0,1,10.48,0H55.4v5.24h-21ZM63.25,65.87H26.58V29.2h5.24v7.86H58V29.2h5.24Z"/><circle class="cls-1" cx="44.92" cy="29.2" r="2.62"/><polygon class="cls-1" points="43.7 52.87 38.14 47.31 34.44 51.02 41.85 58.43 43.7 60.28 57.98 46 54.27 42.3 43.7 52.87"/></g></g></svg>