<?xml version="1.0" encoding="utf-8"?>
<!-- Generator: Adobe Illustrator 21.0.0, SVG Export Plug-In . SVG Version: 6.00 Build 0)  -->
<svg version="1.1" id="Layer_1" xmlns="http://www.w3.org/2000/svg" xmlns:xlink="http://www.w3.org/1999/xlink" x="0px" y="0px"
	 viewBox="0 0 46.4 46.4" style="enable-background:new 0 0 46.4 46.4;" xml:space="preserve">
<style type="text/css">
	.st0{fill:#C19425;}
	.st1{fill:#FFFFFF;}
	.st2{fill:#FFF67E;}
</style>
<g>
	<path class="st0" d="M46.4,23.2C46.4,36,36,46.4,23.2,46.4C10.4,46.4,0,36,0,23.2C0,10.4,10.4,0,23.2,0C36,0,46.4,10.4,46.4,23.2
		L46.4,23.2z M46.4,23.2"/>
	<path class="st1" d="M35.2,23.2l-17.6,12v-24L35.2,23.2z M35.2,23.2"/>
	<path class="st1" d="M17.6,36c-0.1,0-0.3,0-0.4-0.1c-0.3-0.1-0.4-0.4-0.4-0.7v-24c0-0.3,0.2-0.6,0.4-0.7c0.3-0.1,0.6-0.1,0.8,0
		l17.6,12c0.2,0.1,0.3,0.4,0.3,0.7c0,0.3-0.1,0.5-0.3,0.7l-17.6,12C17.9,36,17.8,36,17.6,36L17.6,36z M18.4,12.7v21l15.4-10.5
		L18.4,12.7z M18.4,12.7"/>
</g>
<g>
	<rect x="588.3" y="-438.7" width="114.3" height="147.8"/>
	<rect x="337" y="-438.7" class="st2" width="114.3" height="147.8"/>
	<rect x="462.7" y="-438.7" class="st0" width="114.3" height="147.8"/>
</g>
</svg>
