<?xml version="1.0" encoding="utf-8"?>
<!-- Generator: Adobe Illustrator 21.0.0, SVG Export Plug-In . SVG Version: 6.00 Build 0)  -->
<svg version="1.1" id="Layer_1" xmlns="http://www.w3.org/2000/svg" xmlns:xlink="http://www.w3.org/1999/xlink" x="0px" y="0px"
	 viewBox="0 0 46.4 46.4" style="enable-background:new 0 0 46.4 46.4;" xml:space="preserve">
<style type="text/css">
	.st0{fill:#FFF67E;}
	.st1{fill:#C19425;}
	.st2{clip-path:url(#SVGID_2_);fill:#FFFFFF;}
	.st3{fill:#FFFFFF;}
</style>
<g>
	<path class="st1" d="M46.4,23.2C46.4,36,36,46.4,23.2,46.4C10.4,46.4,0,36,0,23.2C0,10.4,10.4,0,23.2,0C36,0,46.4,10.4,46.4,23.2
		L46.4,23.2z M46.4,23.2"/>
	<g>
		<g>
			<defs>
				<rect id="SVGID_1_" x="11.6" y="14" width="26.7" height="18.3"/>
			</defs>
			<clipPath id="SVGID_2_">
				<use xlink:href="#SVGID_1_"  style="overflow:visible;"/>
			</clipPath>
			<path class="st2" d="M21.9,30.6c-0.8,0-1.6-0.1-2.3-0.2l-0.3-0.1l-3.6,2V29l-0.4-0.2c-2.4-1.6-3.7-3.9-3.7-6.4
				c0-4.6,4.6-8.3,10.3-8.3c0.9,0,1.8,0.1,2.6,0.3c-2.7,1.5-4.5,4-4.5,6.9c0,3.9,3.3,7.2,7.6,8C26,30.1,24,30.6,21.9,30.6L21.9,30.6
				z M21.9,30.6"/>
		</g>
		<path class="st3" d="M35,26.2l-0.4,0.2v2.6L32,27.5l0,0l-0.3,0.1c-0.6,0.1-1.2,0.2-1.9,0.2c-0.1,0-0.1,0-0.2,0c-4.4-0.1-8-3-8-6.6
			c0-2.8,2.2-5.2,5.2-6.1c0.8-0.2,1.6-0.4,2.5-0.4c0.2,0,0.3,0,0.5,0c4.5,0,8.2,3,8.2,6.6C38,23.1,36.9,25,35,26.2L35,26.2z
			 M35,26.2"/>
	</g>
</g>
</svg>
