<svg xmlns="http://www.w3.org/2000/svg" viewBox="0 0 89.83 89.83"><defs><style>.cls-1{fill:#c19425;}</style></defs><title>icon-3</title><g id="Layer_2" data-name="Layer 2"><g id="Layer_1-2" data-name="Layer 1"><path class="cls-1" d="M45.21,89.24A44.62,44.62,0,1,1,89.83,44.62,44.67,44.67,0,0,1,45.21,89.24ZM45.21.3A44.32,44.32,0,1,0,89.54,44.62,44.37,44.37,0,0,0,45.21.3Z"/><path class="cls-1" d="M45.21,89.83A45.26,45.26,0,0,1,0,44.62a.74.74,0,1,1,1.48,0A43.78,43.78,0,0,0,45.21,88.35a.74.74,0,1,1,0,1.48Z"/><path class="cls-1" d="M45.21,87.71A43.1,43.1,0,0,1,28.44,4.92,43.1,43.1,0,0,1,62,84.32,42.82,42.82,0,0,1,45.21,87.71Zm0-86.1A43,43,0,0,0,28.47,84.26,43,43,0,0,0,62,5,42.75,42.75,0,0,0,45.21,1.6Z"/><rect class="cls-1" x="51.76" y="49.5" width="12.14" height="3.24"/><path class="cls-1" d="M28.48,57.81H24.35a1.55,1.55,0,1,0,0,3.09h4.13a1.55,1.55,0,0,0,0-3.09Z"/><path class="cls-1" d="M45,49.56H40.85a1.55,1.55,0,0,0,0,3.1H45a1.55,1.55,0,1,0,0-3.1Z"/><path class="cls-1" d="M45,61.94H40.85a1.55,1.55,0,1,0,0,3.09H45a1.55,1.55,0,1,0,0-3.09Z"/><path class="cls-1" d="M37.37,49.7h0a1.52,1.52,0,0,0-.64-.14H32.6a1.55,1.55,0,0,0,0,3.1h4.13a1.55,1.55,0,0,0,1.55-1.55,1.48,1.48,0,0,0,0-.15A1.54,1.54,0,0,0,37.37,49.7Z"/><path class="cls-1" d="M36.73,53.68H32.6a1.55,1.55,0,0,0,0,3.09h4.13a1.55,1.55,0,0,0,0-3.09Z"/><path class="cls-1" d="M45,57.81H40.85a1.54,1.54,0,0,0-.71.18h0a1.56,1.56,0,0,0-.45.36,1.52,1.52,0,0,0-.39,1,1.54,1.54,0,0,0,1.35,1.53h0l.19,0H45a1.55,1.55,0,0,0,1.55-1.55A1.56,1.56,0,0,0,45,57.81Z"/><path class="cls-1" d="M45,53.68H40.85a1.54,1.54,0,0,0-1.09.45h0A1.54,1.54,0,0,0,40,56.53h0a1.53,1.53,0,0,0,.84.25H45a1.55,1.55,0,1,0,0-3.09Z"/><path class="cls-1" d="M26.41,46.46h16.5a2.72,2.72,0,0,0,2.58-2.84v-17a2.72,2.72,0,0,0-2.58-2.84H26.41a2.72,2.72,0,0,0-2.58,2.84v17A2.72,2.72,0,0,0,26.41,46.46Z"/><path class="cls-1" d="M28.48,49.56H24.35a1.55,1.55,0,1,0,0,3.1h4.13a1.55,1.55,0,0,0,0-3.1Z"/><path class="cls-1" d="M28.48,61.94H24.35a1.55,1.55,0,1,0,0,3.09h4.13a1.55,1.55,0,0,0,0-3.09Z"/><path class="cls-1" d="M36.73,61.94H32.6a1.55,1.55,0,0,0,0,3.09h4.13a1.55,1.55,0,1,0,0-3.09Z"/><path class="cls-1" d="M44.92,10.92a34,34,0,1,0,34,34A34,34,0,0,0,44.92,10.92ZM68.06,37.16H47.56V40.8h20.5V57.33a1,1,0,0,1-1,1H47.56v5.14a4.67,4.67,0,0,1-4.64,4.64H26.41a4.64,4.64,0,0,1-4.64-4.64V26.35a4.65,4.65,0,0,1,4.64-4.64h16.5a4.64,4.64,0,0,1,4.64,4.64v5.14H67a1,1,0,0,1,1,1Z"/><path class="cls-1" d="M36.73,57.81H32.6a1.55,1.55,0,0,0,0,3.09h4.13a1.55,1.55,0,0,0,0-3.09Z"/><path class="cls-1" d="M28.48,53.68H24.35a1.55,1.55,0,1,0,0,3.09h4.13a1.55,1.55,0,0,0,0-3.09Z"/></g></g></svg>