<svg xmlns="http://www.w3.org/2000/svg" viewBox="0 0 89.83 89.83"><defs><style>.cls-1{fill:#c19425;}</style></defs><title>icon-4</title><g id="Layer_2" data-name="Layer 2"><g id="Layer_1-2" data-name="Layer 1"><path class="cls-1" d="M45.21,89.24A44.62,44.62,0,1,1,89.83,44.62,44.67,44.67,0,0,1,45.21,89.24ZM45.21.3A44.32,44.32,0,1,0,89.54,44.62,44.37,44.37,0,0,0,45.21.3Z"/><path class="cls-1" d="M45.21,89.83A45.26,45.26,0,0,1,0,44.62a.74.74,0,1,1,1.48,0A43.78,43.78,0,0,0,45.21,88.35a.74.74,0,1,1,0,1.48Z"/><path class="cls-1" d="M45.21,87.71A43.1,43.1,0,0,1,28.44,4.92,43.1,43.1,0,0,1,62,84.32,42.82,42.82,0,0,1,45.21,87.71Zm0-86.1A43,43,0,0,0,28.47,84.26,43,43,0,0,0,62,5,42.75,42.75,0,0,0,45.21,1.6Z"/><path class="cls-1" d="M44.92,10.92a34,34,0,1,0,34,34A34,34,0,0,0,44.92,10.92Zm0,13.15c9.19,0,17,3.79,17.22,8.33-.26,4.54-8,8.33-17.22,8.33S28,36.94,27.7,32.4C28,27.86,35.73,24.07,44.92,24.07ZM62.16,57.2c0,4.65-7.9,8.57-17.24,8.57S27.67,61.84,27.67,57.2V53.1c3,3.54,9.48,6,17.24,6s14.29-2.41,17.24-6Zm0-8.4c0,4.64-7.9,8.57-17.24,8.57S27.67,53.44,27.67,48.8V44.53c3,3.54,9.48,6,17.24,6s14.29-2.41,17.24-6Zm0-8.58c0,4.64-7.9,8.57-17.24,8.57s-17.24-3.92-17.24-8.57V36.47c3,3.54,9.48,6,17.24,6s14.29-2.41,17.24-6Z"/></g></g></svg>