<svg xmlns="http://www.w3.org/2000/svg" viewBox="0 0 213.42 62.33"><defs><style>.cls-1{fill:#d1a02f;}</style></defs><title>logo-gowatch-2</title><g id="Layer_2" data-name="Layer 2"><g id="Layer_1-2" data-name="Layer 1"><polygon class="cls-1" points="77.36 0.66 86.23 23.44 95.5 0.73 104.38 23.44 113.81 0.66 119.39 0.66 104.16 36.91 95.39 14.48 86.25 36.93 71.77 0.66 77.36 0.66"/><polygon class="cls-1" points="193.57 13.99 208.28 13.99 208.28 0.66 213.42 0.66 213.42 34.74 208.28 34.74 208.28 18.82 193.57 18.82 193.57 34.74 188.43 34.74 188.43 0.66 193.57 0.66 193.57 13.99"/><polygon class="cls-1" points="126.24 0.76 126.26 0.76 126.24 0.73 111.4 34.74 117.48 34.7 126.15 13.96 135.16 34.78 141.07 34.74 126.24 0.76"/><polygon class="cls-1" points="149.17 0.73 133.11 0.73 135.13 5.55 144.13 5.55 144.13 26.95 147.41 34.74 149.27 34.74 149.27 5.55 149.82 5.55 158.16 5.55 160.19 0.73 149.82 0.73 149.17 0.73"/><path class="cls-1" d="M56.15.1a17.7,17.7,0,1,0,17.7,17.69A17.7,17.7,0,0,0,56.15.1Zm0,30.54A12.85,12.85,0,1,1,69,17.79,12.85,12.85,0,0,1,56.15,30.64Z"/><path class="cls-1" d="M35.77,17.39h-17l2,4.71h9.49a13,13,0,1,1-.45-9.55H35a17.92,17.92,0,1,0,.81,5.34C35.8,17.73,35.78,17.56,35.77,17.39Z"/><path class="cls-1" d="M175.54,30.6a12.92,12.92,0,1,1,9.11-22.07V2.48A17.48,17.48,0,0,0,175.78,0a17.13,17.13,0,0,0-13.71,6.25,17.5,17.5,0,0,0-4.3,11.61,16.89,16.89,0,0,0,5.14,12.4,17.09,17.09,0,0,0,12.47,5.1,18.6,18.6,0,0,0,9.27-2.5v-6A12.87,12.87,0,0,1,175.54,30.6Z"/><path class="cls-1" d="M35.63,47a11.45,11.45,0,0,0,1.24.26c.12,0,.26.21.26.47,0,.48.05,1.09.09,1.59s-.1.66-.29.66-.24-.21-.33-.47a2.59,2.59,0,0,0-.73-1.23,4,4,0,0,0-2.56-1c-2.75,0-4,2.18-4,4.8A6.61,6.61,0,0,0,29.86,55a4.29,4.29,0,0,0,3.87,2.57,3.63,3.63,0,0,0,1.68-.4,3.9,3.9,0,0,0,1.5-1.57c.21-.38.33-.54.47-.54s.19.45.14.64a8.08,8.08,0,0,1-.52,1.5,1.42,1.42,0,0,1-.62.55,9.24,9.24,0,0,1-3,.5,7,7,0,0,1-5.08-2,5.69,5.69,0,0,1-1.45-3.89,5.48,5.48,0,0,1,1.9-4.15,7.3,7.3,0,0,1,4.66-1.55A9.71,9.71,0,0,1,35.63,47Z"/><path class="cls-1" d="M40,51.57a10.75,10.75,0,0,0,1.74-.66,1.42,1.42,0,0,1,.42-.21c.1,0,.21.16.21.21,0,.31-.05.64-.05,1,0,.05.09.12.14.07a3.12,3.12,0,0,1,1.83-1.07c.76,0,1,.47,1,.71a.78.78,0,0,1-.1.28,4.6,4.6,0,0,1-.85,1,.63.63,0,0,1-.31-.07,2.24,2.24,0,0,0-1.09-.48.7.7,0,0,0-.43.1.41.41,0,0,0-.16.35c0,.34.09,3.35.1,3.61,0,.54.16.85.4.9s.54.16.74.22.34.21.34.28-.21.21-.48.21c-.52,0-1.42-.09-2.44-.09-.36,0-.73.05-1.14.05-.19,0-.41-.05-.41-.24s.26-.21.4-.26c.62-.22.66-.41.67-1.45V53.16a1,1,0,0,0-.14-.66,2.89,2.89,0,0,1-.62-.6S39.77,51.62,40,51.57Z"/><path class="cls-1" d="M51.88,51.6a2.1,2.1,0,0,1,.66,1.52c0,.12-.17.41-.38.41H48.39a.2.2,0,0,0-.19.12,2.2,2.2,0,0,0-.07.62,3.28,3.28,0,0,0,.54,1.61,2.43,2.43,0,0,0,1.92.86,1.78,1.78,0,0,0,1.55-.61c.07-.1.16-.21.22-.21s.16.12.16.22a1,1,0,0,1-.14.43,3.07,3.07,0,0,1-2.76,1.5,3.18,3.18,0,0,1-3.2-3.47,3.74,3.74,0,0,1,2.19-3.42A3.4,3.4,0,0,1,50,50.87,2.69,2.69,0,0,1,51.88,51.6Zm-3.58,1.23a.14.14,0,0,0,.12.17c.45,0,1,0,1.85,0a.57.57,0,0,0,.61-.59,1.13,1.13,0,0,0-1-1.05A1.88,1.88,0,0,0,48.31,52.83Z"/><path class="cls-1" d="M59.27,51.81a2.37,2.37,0,0,1,.38,1.49c0,.67-.07,2.73-.07,2.92a.64.64,0,0,0,.64.69,3.6,3.6,0,0,0,.61-.21c.05,0,.07,0,.1,0A.7.7,0,0,1,61,57a2,2,0,0,1-1.78,1.17,1.25,1.25,0,0,1-1.3-.83c0-.07-.12-.1-.16-.07a9.11,9.11,0,0,1-1.36.72,2.67,2.67,0,0,1-.76.14,1.65,1.65,0,0,1-1.33-1.75,1.59,1.59,0,0,1,.31-.88,1.4,1.4,0,0,1,.62-.42c.38-.15,2-.59,2.35-.71.21-.07.31-.19.31-.26s.05-1.11,0-1.33a1.18,1.18,0,0,0-1.16-1.11,1,1,0,0,0-.55.12c-.07,0-.1.21-.1.8a.21.21,0,0,1-.07.15,9,9,0,0,1-1.52.69.27.27,0,0,1-.22-.24c0-.5.38-1,1.45-1.66a4.36,4.36,0,0,1,1.73-.64A2,2,0,0,1,59.27,51.81Zm-1.62,5a.52.52,0,0,0,.16-.33c0-.24.07-1,.07-1.54,0-.07-.07-.17-.12-.17a4.15,4.15,0,0,0-1.4.45c-.21.16-.31.24-.31.69A1.07,1.07,0,0,0,57,57.06,1.6,1.6,0,0,0,57.65,56.85Z"/><path class="cls-1" d="M66.73,51.07c.07,0,.26.07.26.19,0-.05.05.5.05.71s-.33.21-.45.21H65a.18.18,0,0,0-.17.12c0,.86,0,2.47,0,3.49a1,1,0,0,0,.28.81,1.43,1.43,0,0,0,.85.29,2.13,2.13,0,0,0,.76-.24.6.6,0,0,1,.29-.12c.05,0,.12.09.12.28a1,1,0,0,1-.28.5,2.71,2.71,0,0,1-2,.81,2,2,0,0,1-1.61-.74,1.72,1.72,0,0,1-.31-1.23c0-.64.07-3.14.07-3.75,0-.12-.29-.24-.66-.38a.32.32,0,0,1-.21-.29.16.16,0,0,1,.09-.16A10.81,10.81,0,0,0,64,50.18c.21-.24.33-.38.4-.38s.35.17.35.29V51a.2.2,0,0,0,.16.16C65.28,51.12,66.66,51.07,66.73,51.07Z"/><path class="cls-1" d="M74,51.6a2.1,2.1,0,0,1,.66,1.52c0,.12-.17.41-.38.41H70.55a.2.2,0,0,0-.19.12,2.2,2.2,0,0,0-.07.62,3.28,3.28,0,0,0,.54,1.61,2.43,2.43,0,0,0,1.92.86,1.78,1.78,0,0,0,1.55-.61c.07-.1.16-.21.22-.21s.16.12.16.22a1,1,0,0,1-.14.43,3.07,3.07,0,0,1-2.76,1.5,3.18,3.18,0,0,1-3.2-3.47,3.74,3.74,0,0,1,2.19-3.42,3.4,3.4,0,0,1,1.42-.33A2.69,2.69,0,0,1,74,51.6Zm-3.58,1.23a.15.15,0,0,0,.12.17c.45,0,1,0,1.85,0a.57.57,0,0,0,.61-.59,1.13,1.13,0,0,0-1-1.05A1.88,1.88,0,0,0,70.46,52.83Z"/><path class="cls-1" d="M80.07,51c.6,0,1.19.07,1.71.07s1.16,0,1.4,0,.41.07.41.21-.1.23-.41.33c-.47.14-.48.24-.33.69a30.77,30.77,0,0,0,1.33,3.27c0,.05.12.05.17-.05.21-.5,1.11-2.71,1.24-3.13s0-.64-.66-.81c-.22-.07-.36-.21-.36-.28s.21-.23.43-.23.78,0,1,0,.76-.07,1.21-.07c.24,0,.36.09.36.21s-.19.24-.41.31a1.55,1.55,0,0,0-.9.85c-.38.79-1.64,3.85-2,4.63l-1.87,4.7a1.11,1.11,0,0,1-1,.59.91.91,0,0,1-.91-.95.86.86,0,0,1,.78-.85l.79,0c.15,0,.24-.12.31-.3s.64-1.61.76-2a.67.67,0,0,0,0-.36,6.68,6.68,0,0,1-.29-.74c-.43-1.09-1.66-4-2.12-5a1,1,0,0,0-.76-.64c-.24-.09-.4-.17-.4-.34S79.8,51,80.07,51Z"/><path class="cls-1" d="M96.09,54.47a3.61,3.61,0,0,1-1.54,2.94,4.18,4.18,0,0,1-2.38.71,4,4,0,0,1-2.38-.9,3.69,3.69,0,0,1-1.3-2.66,3.44,3.44,0,0,1,1.19-2.68,4.28,4.28,0,0,1,2.76-1A3.63,3.63,0,0,1,96.09,54.47Zm-4.82-2.64a3.06,3.06,0,0,0-.71,2.26,6.06,6.06,0,0,0,.21,1.66c.36,1.21,1.16,1.8,1.88,1.8a1.19,1.19,0,0,0,.76-.43A4.16,4.16,0,0,0,94,54.75a4.86,4.86,0,0,0-.69-2.61,1.64,1.64,0,0,0-1.24-.69A1.21,1.21,0,0,0,91.27,51.83Z"/><path class="cls-1" d="M102.8,56.61a.9.9,0,0,0,.17-.4l0-3.87a.5.5,0,0,0-.29-.4c-.28-.09-.47-.17-.69-.26a.39.39,0,0,1-.28-.31c0-.07.16-.17.29-.17A14.47,14.47,0,0,0,104.3,51a2.25,2.25,0,0,1,.41-.07c.12,0,.17.21.17.28,0,.62-.09,5-.09,5.56,0,.05,0,.31.22.31s.55-.12.78-.12c.07,0,.19.4.21.45s-.12.19-.21.19a13.18,13.18,0,0,0-1.76.36c-.29.09-.85.22-.9.22a.27.27,0,0,1-.19-.24c0-.1,0-.41,0-.71,0-.09-.07-.16-.1-.12a8.27,8.27,0,0,1-1.21.76,2.38,2.38,0,0,1-1.11.26,2,2,0,0,1-1.76-.91,2.29,2.29,0,0,1-.19-.92c0-1.23,0-2.9-.05-3.82,0-.5-.29-.61-.59-.73s-.31-.21-.31-.36.1-.19.28-.19c.48,0,2.31-.19,2.38-.19s.14.19.14.26c0,1.31,0,3.9,0,4.7a1,1,0,0,0,.33.74,1.66,1.66,0,0,0,1,.33A1.75,1.75,0,0,0,102.8,56.61Z"/><path class="cls-1" d="M107.86,51.57a10.75,10.75,0,0,0,1.74-.66,1.43,1.43,0,0,1,.42-.21c.1,0,.21.16.21.21,0,.31-.05.64-.05,1,0,.05.09.12.14.07a3.12,3.12,0,0,1,1.83-1.07c.76,0,1,.47,1,.71a.78.78,0,0,1-.1.28,4.61,4.61,0,0,1-.85,1,.64.64,0,0,1-.31-.07,2.24,2.24,0,0,0-1.09-.48.7.7,0,0,0-.43.1.41.41,0,0,0-.15.35c0,.34.09,3.35.1,3.61,0,.54.15.85.4.9s.54.16.74.22.34.21.34.28-.21.21-.48.21c-.52,0-1.42-.09-2.44-.09-.36,0-.73.05-1.14.05-.19,0-.41-.05-.41-.24s.26-.21.4-.26c.62-.22.66-.41.67-1.45V53.16a1,1,0,0,0-.14-.66,2.91,2.91,0,0,1-.62-.6S107.67,51.62,107.86,51.57Z"/><path class="cls-1" d="M125.94,54.47a3.61,3.61,0,0,1-1.54,2.94,4.18,4.18,0,0,1-2.38.71,4,4,0,0,1-2.38-.9,3.69,3.69,0,0,1-1.3-2.66,3.44,3.44,0,0,1,1.19-2.68,4.28,4.28,0,0,1,2.76-1A3.63,3.63,0,0,1,125.94,54.47Zm-4.82-2.64a3.06,3.06,0,0,0-.71,2.26,6.06,6.06,0,0,0,.21,1.66c.36,1.21,1.16,1.8,1.88,1.8a1.19,1.19,0,0,0,.76-.43,4.16,4.16,0,0,0,.64-2.37,4.86,4.86,0,0,0-.69-2.61,1.64,1.64,0,0,0-1.24-.69A1.21,1.21,0,0,0,121.12,51.83Z"/><path class="cls-1" d="M130.27,51.07c.31,0,.43.12.43.21s-.1.21-.4.29-.38.24-.26.57c.24.71,1.21,3.14,1.33,3.4.05.07.12.07.16,0,.19-.4.66-1.38.95-2.07a.69.69,0,0,0,.05-.29,7.77,7.77,0,0,0-.38-1,1.12,1.12,0,0,0-.64-.62c-.26-.09-.38-.17-.38-.33s.12-.17.43-.17.92.07,1.35.07S134,51,134.38,51s.4.09.4.19-.12.24-.35.29c-.41.12-.48.3-.48.38a1.39,1.39,0,0,0,.14.48c.1.23,1,2.54,1.28,3.13,0,.07.09.07.14,0,.21-.5.55-1.4.86-2.18a4.9,4.9,0,0,0,.36-1.26c0-.17-.09-.38-.71-.54-.22-.07-.41-.14-.41-.29s.21-.21.41-.21.74.07,1.12.07,1-.09,1.31-.09.38.07.38.17-.22.26-.5.33a1.46,1.46,0,0,0-.85.81c-.5.95-1.26,2.73-1.69,3.73-.29.73-.57,1.45-.69,1.75s-.17.33-.26.33-.36-.21-.47-.33-.29-.85-.47-1.28c-.33-.78-.64-1.59-1-2.42,0,0-.1-.05-.12,0-.5,1-1.07,2.16-1.52,3.23-.07.17-.35.83-.54.83a.33.33,0,0,1-.33-.26l-.47-1.28c-.12-.34-1.36-3.35-1.74-4.11-.24-.54-.36-.83-.88-1-.26-.07-.41-.16-.41-.26s.14-.24.5-.24,1.3.07,1.69.07S129.94,51.07,130.27,51.07Z"/><path class="cls-1" d="M140.39,51.48a12.82,12.82,0,0,0,1.4-.52,2.58,2.58,0,0,1,.59-.26c.07,0,.19.19.19.26s0,.61,0,.76.12.09.12.09a3.8,3.8,0,0,1,2.19-.93,2,2,0,0,1,1.59.69,3.21,3.21,0,0,1,.62,2.09c0,.36,0,2.9.05,3.14s.15.47.6.59.45.17.45.31-.21.24-.5.24-1.09,0-1.57,0S145,58,144.74,58s-.47-.05-.47-.24.19-.22.42-.29c.4-.16.48-.31.52-.88s0-2.71,0-3.21a1.56,1.56,0,0,0-.38-1,1.69,1.69,0,0,0-1-.36,1.74,1.74,0,0,0-1.14.34.87.87,0,0,0-.17.38c0,.29,0,4,0,4.22s.07.36.6.54c.16.07.29.19.29.29s-.19.24-.48.24l-1.33,0c-.64,0-1.31.05-1.61.05s-.47-.1-.47-.26.17-.23.36-.28c.57-.19.66-.33.71-1s.09-1.9.09-3.65c0-.19-.12-.36-.5-.71-.14-.14-.19-.19-.19-.24A.66.66,0,0,1,140.39,51.48Z"/><path class="cls-1" d="M157.54,51a3.58,3.58,0,0,1,.62.19.44.44,0,0,1,.16.3c0,.24.07,1,.07,1.11s-.14.36-.26.36-.28-.22-.38-.41c-.38-.72-.81-1.12-1.43-1.12a.93.93,0,0,0-.86.88c0,.62.66,1,1.52,1.49,1.49.79,1.69,1.4,1.69,2.18a2.09,2.09,0,0,1-1.09,1.75,4.09,4.09,0,0,1-1.74.43,3.43,3.43,0,0,1-1.74-.4,3.6,3.6,0,0,1-.33-1.42c0-.26.1-.4.17-.4s.29.19.41.4c.57,1,1.24,1.29,1.68,1.29a1.42,1.42,0,0,0,.69-.22,1,1,0,0,0,.35-.78c0-.29-.14-.61-.69-.95s-.67-.43-1.19-.74A2.32,2.32,0,0,1,154,53,2,2,0,0,1,155,51.24a3.06,3.06,0,0,1,1.5-.36A4.64,4.64,0,0,1,157.54,51Z"/><path class="cls-1" d="M165,51.07c.07,0,.26.07.26.19,0-.05.05.5.05.71s-.33.21-.45.21h-1.64a.18.18,0,0,0-.17.12c0,.86,0,2.47,0,3.49a1,1,0,0,0,.28.81,1.43,1.43,0,0,0,.85.29,2.14,2.14,0,0,0,.76-.24.6.6,0,0,1,.29-.12c.05,0,.12.09.12.28a1,1,0,0,1-.28.5,2.71,2.71,0,0,1-2,.81,2,2,0,0,1-1.61-.74,1.72,1.72,0,0,1-.31-1.23c0-.64.07-3.14.07-3.75,0-.12-.29-.24-.66-.38a.32.32,0,0,1-.21-.29.16.16,0,0,1,.09-.16,10.82,10.82,0,0,0,1.81-1.38c.21-.24.33-.38.4-.38s.35.17.35.29V51a.2.2,0,0,0,.15.16C163.51,51.12,164.89,51.07,165,51.07Z"/><path class="cls-1" d="M166.44,51c.61,0,1.19.07,1.71.07s1.16,0,1.4,0,.41.07.41.21-.1.23-.41.33c-.47.14-.48.24-.33.69a30.77,30.77,0,0,0,1.33,3.27c0,.05.12.05.17-.05.21-.5,1.11-2.71,1.24-3.13s0-.64-.66-.81c-.22-.07-.36-.21-.36-.28s.21-.23.43-.23.78,0,1,0,.76-.07,1.21-.07c.24,0,.36.09.36.21s-.19.24-.41.31a1.55,1.55,0,0,0-.9.85c-.38.79-1.64,3.85-2,4.63l-1.87,4.7a1.11,1.11,0,0,1-1,.59.91.91,0,0,1-.91-.95.86.86,0,0,1,.78-.85l.79,0c.15,0,.24-.12.31-.3s.64-1.61.76-2a.67.67,0,0,0,0-.36,6.68,6.68,0,0,1-.29-.74c-.43-1.09-1.66-4-2.12-5a1,1,0,0,0-.76-.64c-.24-.09-.4-.17-.4-.34S166.17,51,166.44,51Z"/><path class="cls-1" d="M175.18,46.45a8,8,0,0,0,2.25-.78c.05,0,.21.1.21.17-.05.62-.14,4.09-.14,6.69,0,1.35,0,3.63.07,4.15s.12.61.78.79c.24.09.36.17.36.3s-.28.21-.47.21c-.41,0-1.4-.07-1.71-.07s-1.24.07-1.61.07-.5-.12-.5-.21.22-.26.41-.3c.57-.15.67-.41.73-1.31s.1-2.71.1-5.44c0-.9,0-2.52,0-3,0-.21-.1-.31-.47-.59s-.31-.27-.31-.36S175,46.52,175.18,46.45Z"/><path class="cls-1" d="M185.56,51.6a2.1,2.1,0,0,1,.66,1.52c0,.12-.17.41-.38.41h-3.77a.2.2,0,0,0-.19.12,2.2,2.2,0,0,0-.07.62,3.28,3.28,0,0,0,.54,1.61,2.43,2.43,0,0,0,1.92.86,1.78,1.78,0,0,0,1.55-.61c.07-.1.16-.21.22-.21s.16.12.16.22a1,1,0,0,1-.14.43,3.07,3.07,0,0,1-2.76,1.5,3.18,3.18,0,0,1-3.2-3.47,3.74,3.74,0,0,1,2.19-3.42,3.4,3.4,0,0,1,1.42-.33A2.69,2.69,0,0,1,185.56,51.6ZM182,52.83a.15.15,0,0,0,.12.17c.45,0,1,0,1.85,0a.57.57,0,0,0,.61-.59,1.13,1.13,0,0,0-1-1.05A1.88,1.88,0,0,0,182,52.83Z"/></g></g></svg>